<svg xmlns="http://www.w3.org/2000/svg" xmlns:xlink="http://www.w3.org/1999/xlink" width="37.892" height="37.892" viewBox="0 0 37.892 37.892">
<defs>
<linearGradient id="linear-gradient" x1="0.5" x2="0.5" y2="1" gradientUnits="objectBoundingBox">
<stop offset="0" stop-color="#120845"></stop>
<stop offset="1" stop-color="#7562DF"></stop>
</linearGradient>
</defs>
<g id="logo_design_-_icon" data-name="logo design - icon" transform="translate(0.25 0.25)">
<g id="Group_129" data-name="Group 129">
<g id="Group_128" data-name="Group 128">
<path id="Path_74" data-name="Path 74" d="M36.3,0H31.915a1.1,1.1,0,0,0-1.1,1.1v1.1H21.794a3.286,3.286,0,0,0-6.2,0H6.573V1.1A1.1,1.1,0,0,0,5.477,0H1.1A1.1,1.1,0,0,0,0,1.1V5.477a1.1,1.1,0,0,0,1.1,1.1H5.477a1.1,1.1,0,0,0,1.1-1.1V4.367h4.555A14.392,14.392,0,0,0,4.485,15.588a3.285,3.285,0,1,0,2.2.022A12.232,12.232,0,0,1,15.753,4.746a3.285,3.285,0,0,0,5.887,0A12.232,12.232,0,0,1,30.712,15.61a3.288,3.288,0,1,0,2.2-.022A14.367,14.367,0,0,0,26.264,4.382h4.555v1.1a1.1,1.1,0,0,0,1.1,1.1H36.3a1.1,1.1,0,0,0,1.1-1.1V1.1A1.1,1.1,0,0,0,36.3,0ZM4.382,4.382H2.191V2.191H4.382ZM5.55,19.792a1.1,1.1,0,1,1,1.1-1.1A1.1,1.1,0,0,1,5.55,19.792ZM18.7,4.382a1.1,1.1,0,1,1,1.1-1.1A1.1,1.1,0,0,1,18.7,4.382ZM31.842,17.6a1.1,1.1,0,1,1-1.1,1.1A1.1,1.1,0,0,1,31.842,17.6ZM35.2,4.382H33.01V2.191H35.2Z" stroke="#2d2e32" stroke-width="0.5" fill="url(#linear-gradient)"></path>
</g>
</g>
<g id="Group_131" data-name="Group 131" transform="translate(8.837 8.838)">
<g id="Group_130" data-name="Group 130">
<path id="Path_75" data-name="Path 75" d="M140.535,134.643,131.771,121.5h0l-.01-.014c-.015-.022-.031-.043-.047-.063a1.1,1.1,0,0,0-1.754.063l-.01.014h0l-8.764,13.146a1.1,1.1,0,0,0,.137,1.382,13.879,13.879,0,0,1,3.956,8.1,5.651,5.651,0,0,0-.49.444,5.553,5.553,0,0,0-1.6,3.9,1.1,1.1,0,0,0,1.1,1.1h13.146a1.1,1.1,0,0,0,1.1-1.1,5.553,5.553,0,0,0-1.6-3.9,5.642,5.642,0,0,0-.49-.444,13.877,13.877,0,0,1,3.956-8.1A1.1,1.1,0,0,0,140.535,134.643Zm-9.675-.488a1.1,1.1,0,1,1-1.1,1.1A1.1,1.1,0,0,1,130.859,134.155Zm-5.291,13.219a3.346,3.346,0,0,1,3.1-2.264h4.382a3.346,3.346,0,0,1,3.1,2.264Zm8.814-4.288a5.382,5.382,0,0,0-1.332-.167h-4.382a5.378,5.378,0,0,0-1.332.167,16.075,16.075,0,0,0-3.845-7.953l6.273-9.41v6.43a3.286,3.286,0,1,0,2.191,0v-6.43l6.273,9.41A16.073,16.073,0,0,0,134.383,143.086Z" transform="translate(-121 -121.01)" stroke="#2d2e32" stroke-width="0.5" fill="url(#linear-gradient)"></path>
</g>
</g>
</g>
</svg>