<svg xmlns="http://www.w3.org/2000/svg" xmlns:xlink="http://www.w3.org/1999/xlink" width="37" height="38.134" viewBox="0 0 37 38.134">
<defs>
<linearGradient id="linear-gradient" x1="0.5" x2="0.5" y2="1" gradientUnits="objectBoundingBox">
<stop offset="0" stop-color="#7562DF"></stop>
<stop offset="1" stop-color="#120845"></stop>
</linearGradient>
</defs>
<g id="profuct_design_-_icon" data-name="profuct design - icon" transform="translate(-27.328 -15.227)">
<path id="Path_58" data-name="Path 58" d="M176.63,132.33a1.044,1.044,0,0,0-.63.967v11.652a1.059,1.059,0,0,0,.629.968l9.533,4.237a1.055,1.055,0,0,0,.861,0h0l9.533-4.237a1.059,1.059,0,0,0,.629-.968V133.3a1.044,1.044,0,0,0-.63-.967h0l-9.533-4.237a1.061,1.061,0,0,0-.861,0l-9.533,4.237Zm8.9,15.226-7.415-3.3v-9.333l7.415,3.3Zm9.533-3.3-7.415,3.3v-9.333l7.415-3.3Zm-8.474-14.041,6.925,3.078-6.925,3.078-6.925-3.078Z" transform="translate(-140.794 -105.358)" fill="url(#linear-gradient)"></path>
<path id="Path_59" data-name="Path 59" d="M248,320h2.119v5.3H248Z" transform="translate(-203.261 -271.936)" fill="url(#linear-gradient)"></path>
<path id="Path_60" data-name="Path 60" d="M248,72h2.119v5.3H248Z" transform="translate(-203.261 -56.773)" fill="url(#linear-gradient)"></path>
<path id="Path_61" data-name="Path 61" d="M0,0H2.119V4.916H0Z" transform="translate(27.328 25.723) rotate(-64.46)" fill="url(#linear-gradient)"></path>
<path id="Path_76" data-name="Path 76" d="M0,0H2.119V4.916H0Z" transform="translate(58.981 42.766) rotate(-64.46)" fill="url(#linear-gradient)"></path>
<path id="Path_62" data-name="Path 62" d="M0,0H4.916V2.119H0Z" transform="translate(58.897 25.915) rotate(-25.54)" fill="url(#linear-gradient)"></path>
<path id="Path_63" data-name="Path 63" d="M0,0H4.916V2.119H0Z" transform="translate(27.328 42.86) rotate(-25.54)" fill="url(#linear-gradient)"></path>
</g>
</svg>