<svg xmlns="http://www.w3.org/2000/svg" xmlns:xlink="http://www.w3.org/1999/xlink" width="786.001" height="785.999" viewBox="0 0 786.001 785.999">
  <defs>
    <linearGradient id="linear-gradient" x1="0.5" x2="0.5" y2="1" gradientUnits="objectBoundingBox">
      <stop offset="0" stop-color="#7562DF"/>
      <stop offset="1" stop-color="#120845"/>
    </linearGradient>
  </defs>
  <path id="hero_img_-_bg" data-name="hero img - bg" d="M-2039,786a399.351,399.351,0,0,1-40.182-2.029,394.028,394.028,0,0,1-39.021-5.955,391.034,391.034,0,0,1-73.77-22.9,393.043,393.043,0,0,1-66.757-36.234,395.833,395.833,0,0,1-58.163-47.989,395.81,395.81,0,0,1-47.989-58.163,393.038,393.038,0,0,1-36.234-66.757,391.022,391.022,0,0,1-22.9-73.77,394.066,394.066,0,0,1-5.955-39.021A399.347,399.347,0,0,1-2432,393a399.347,399.347,0,0,1,2.029-40.182,394.066,394.066,0,0,1,5.955-39.021,391.021,391.021,0,0,1,22.9-73.77,393.036,393.036,0,0,1,36.234-66.757,395.81,395.81,0,0,1,47.989-58.163,395.834,395.834,0,0,1,58.163-47.989,393.041,393.041,0,0,1,66.757-36.234,391.034,391.034,0,0,1,73.77-22.9,394.025,394.025,0,0,1,39.021-5.955A399.337,399.337,0,0,1-2039,0a399.337,399.337,0,0,1,40.182,2.029A394.017,394.017,0,0,1-1959.8,7.984a391.025,391.025,0,0,1,73.77,22.9,393.04,393.04,0,0,1,66.757,36.234,395.83,395.83,0,0,1,58.163,47.989,395.825,395.825,0,0,1,47.989,58.163,393.03,393.03,0,0,1,36.234,66.757,391.03,391.03,0,0,1,22.9,73.77,394.056,394.056,0,0,1,5.956,39.021A399.38,399.38,0,0,1-1646,393a399.38,399.38,0,0,1-2.029,40.182,394.056,394.056,0,0,1-5.956,39.021,391.03,391.03,0,0,1-22.9,73.77,393.032,393.032,0,0,1-36.234,66.757,395.826,395.826,0,0,1-47.989,58.163,395.828,395.828,0,0,1-58.163,47.989,393.041,393.041,0,0,1-66.757,36.234,391.024,391.024,0,0,1-73.77,22.9,394.026,394.026,0,0,1-39.021,5.955A399.351,399.351,0,0,1-2039,786Zm0-660.548c-147.527,0-267.548,120.022-267.548,267.548S-2186.528,660.548-2039,660.548-1771.453,540.526-1771.453,393-1891.475,125.451-2039,125.451Z" transform="translate(2432.002 0)" fill="url(#linear-gradient)"/>
</svg>
