<svg xmlns="http://www.w3.org/2000/svg" width="9.01" height="17.369" viewBox="0 0 9.01 17.369">
  <g id="Group_3675" data-name="Group 3675" transform="translate(-272.101 -5873.61)">
    <path id="Path_765" data-name="Path 765" d="M7.491,5.21c.3.023.608.045.911.069.2.016.4.036.608.054V8.1c-.152,0-.3,0-.442,0-.514.008-1.03,0-1.543.03A1.083,1.083,0,0,0,5.873,9.253c-.04.761-.009,1.526-.009,2.319H8.907l-.4,3.091H5.855v7.916H2.664v-7.91H0V11.577H2.661c0-.087,0-.153,0-.218,0-.809-.017-1.619.016-2.426A3.867,3.867,0,0,1,3.692,6.338,3.531,3.531,0,0,1,5.6,5.315c.2-.041.4-.07.6-.105Z" transform="translate(272.101 5868.401)" fill="#dd5f00"/>
  </g>
</svg>
