<svg xmlns="http://www.w3.org/2000/svg" width="17.367" height="17.369" viewBox="0 0 17.367 17.369">
  <g id="Group_3673" data-name="Group 3673" transform="translate(-320.723 -5873.61)">
    <path id="Path_766" data-name="Path 766" d="M141.377,12.955V4.409c.029-.177.047-.357.087-.532A4.7,4.7,0,0,1,145.008.143c.253-.071.518-.1.778-.143h8.546a9.742,9.742,0,0,1,1.089.231,4.732,4.732,0,0,1,3.318,4.551c.01,2.6,0,5.2,0,7.8a4.523,4.523,0,0,1-.6,2.319,4.671,4.671,0,0,1-4.237,2.461c-2.565.016-5.131.007-7.7,0a4.5,4.5,0,0,1-.96-.088,4.686,4.686,0,0,1-3.73-3.537c-.071-.254-.1-.52-.144-.78m8.687-9.032A4.759,4.759,0,1,0,154.818,8.7a4.765,4.765,0,0,0-4.754-4.772m6.485-.293a1.445,1.445,0,0,0-2.89.011,1.445,1.445,0,1,0,2.89-.011" transform="translate(179.346 5873.611)" fill="#dd5f00"/>
    <path id="Path_767" data-name="Path 767" d="M175.223,30.117a3.733,3.733,0,1,1-3.72-3.739,3.737,3.737,0,0,1,3.72,3.739" transform="translate(157.915 5852.18)" fill="#dd5f00"/>
    <path id="Path_768" data-name="Path 768" d="M212.741,17.154a.418.418,0,0,1,.423.415.425.425,0,0,1-.418.422.434.434,0,0,1-.418-.409.426.426,0,0,1,.413-.427" transform="translate(121.704 5859.675)" fill="#dd5f00"/>
  </g>
</svg>
