<svg xmlns="http://www.w3.org/2000/svg" xmlns:xlink="http://www.w3.org/1999/xlink" width="138" height="117" viewBox="0 0 138 117"><defs><linearGradient id="linear-gradient" x1="0.5" x2="0.5" y2="1" gradientUnits="objectBoundingBox"><stop offset="0" stop-color="#120845"></stop><stop offset="1" stop-color="#7562DF"></stop></linearGradient></defs><path id="Intersection_2" data-name="Intersection 2" d="M837.949,117A90.92,90.92,0,0,1,842.7,57.411a92.915,92.915,0,0,1,9.035-15.968A95.669,95.669,0,0,1,863.7,27.532a97.974,97.974,0,0,1,14.5-11.479,99.49,99.49,0,0,1,16.646-8.666,102.185,102.185,0,0,1,76.293,0q.93.378,1.853.774V46.414A65.663,65.663,0,0,0,933,33c-35.29,0-64,27.365-64,61a58.2,58.2,0,0,0,4.723,23Z" transform="translate(-835)" fill="url(#linear-gradient)"></path></svg>