<svg xmlns="http://www.w3.org/2000/svg" width="20.007" height="16.413" viewBox="0 0 20.007 16.413">
  <g id="Group_3674" data-name="Group 3674" transform="translate(-372.729 -5874.428)">
    <path id="Path_769" data-name="Path 769" d="M305.338,20.581a8.61,8.61,0,0,0,5.993-1.744,4.253,4.253,0,0,1-3.842-2.884h1.77l.02-.089a4.192,4.192,0,0,1-3.206-4.076,4.29,4.29,0,0,0,1.8.483,4.2,4.2,0,0,1-1.213-5.508,11.7,11.7,0,0,0,8.419,4.306c0-.453-.029-.876,0-1.294a4.1,4.1,0,0,1,4.168-3.759,4.056,4.056,0,0,1,2.81,1.164.32.32,0,0,0,.344.095,8.993,8.993,0,0,0,2.194-.837c.049-.027.1-.047.212-.1a4.469,4.469,0,0,1-1.675,2.25c.24-.047.481-.087.718-.144s.491-.127.732-.2.471-.165.763-.269a7.164,7.164,0,0,1-1.188,1.43,8.079,8.079,0,0,1-.693.587.382.382,0,0,0-.17.367,11.675,11.675,0,0,1-17.8,10.327c-.055-.032-.106-.07-.159-.105" transform="translate(67.391 5868.413)" fill="#2f2f2f"/>
  </g>
</svg>
